# xmcd
#
# Track frame offsets:
#	150
#	15445
#	26962
#	51967
#	67652
#	81745
#	101015
#	113137
#	127065
#	142320
#
# Disc length: 2217 seconds
#
# Revision: 0
# Processed by: cddbd v1.4PL0 Copyright (c) Steve Scherf et al.
# Submitted via: dBpowerAMP V4.0
#
DISCID=9108a70a
DTITLE=Kelly Nelon Thompson - KNT
DYEAR=1900
DGENRE=CCM
TTITLE0=He'll Go Out of His Way
TTITLE1=God's About to Bless You
TTITLE2=Jesus Is Lord
TTITLE3=Now That You Know
TTITLE4=Quiet Answers
TTITLE5=Don't Stop Praying For Me
TTITLE6=All Hail the Power
TTITLE7=This Is the Only Life for Me
TTITLE8=Allelu
TTITLE9=He'll Never Leave Me
EXTD=KNT - Kelly Nelon Thompson
EXTT0=
EXTT1=
EXTT2=
EXTT3=
EXTT4=
EXTT5=
EXTT6=
EXTT7=
EXTT8=
EXTT9=
PLAYORDER=
